solid OpenSCAD_Model
  facet normal -1 0 0
    outer loop
      vertex 0 0 0
      vertex 0 0 10
      vertex 0 90 0
    endloop
  endfacet
  facet normal -1 0 0
    outer loop
      vertex 0 90 0
      vertex 0 0 10
      vertex 0 90 10
    endloop
  endfacet
  facet normal -0.92388 -0.382683 0
    outer loop
      vertex 0 0 0
      vertex 2.92893 -7.07107 0
      vertex 0 0 10
    endloop
  endfacet
  facet normal -0.92388 -0.382683 0
    outer loop
      vertex 0 0 10
      vertex 2.92893 -7.07107 0
      vertex 2.92893 -7.07107 20
    endloop
  endfacet
  facet normal -0.92388 -0.382683 0
    outer loop
      vertex 0 0 10
      vertex 2.92893 -7.07107 20
      vertex 0 0 20
    endloop
  endfacet
  facet normal 0 0 -1
    outer loop
      vertex 0 0 0
      vertex 0 90 0
      vertex 2.92893 -7.07107 0
    endloop
  endfacet
  facet normal 0 0 -1
    outer loop
      vertex 10 82.5 0
      vertex 0 90 0
      vertex 20 90 0
    endloop
  endfacet
  facet normal 0 0 -1
    outer loop
      vertex 2.92893 -7.07107 0
      vertex 20 90 0
      vertex 20 0 0
    endloop
  endfacet
  facet normal 0 0 -1
    outer loop
      vertex 2.92893 -7.07107 0
      vertex 20 0 0
      vertex 17.0711 -7.07107 0
    endloop
  endfacet
  facet normal 0 0 -1
    outer loop
      vertex 2.92893 -7.07107 0
      vertex 17.0711 -7.07107 0
      vertex 10 -10 0
    endloop
  endfacet
  facet normal 0 0 -1
    outer loop
      vertex 2.92893 -7.07107 0
      vertex 0 90 0
      vertex 7.5 80 0
    endloop
  endfacet
  facet normal 0 0 -1
    outer loop
      vertex 2.92893 -7.07107 0
      vertex 7.5 80 0
      vertex 8.23223 78.2322 0
    endloop
  endfacet
  facet normal 0 0 -1
    outer loop
      vertex 2.92893 -7.07107 0
      vertex 8.23223 78.2322 0
      vertex 10 77.5 0
    endloop
  endfacet
  facet normal 0 0 -1
    outer loop
      vertex 2.92893 -7.07107 0
      vertex 10 77.5 0
      vertex 11.7678 78.2322 0
    endloop
  endfacet
  facet normal 0 0 -1
    outer loop
      vertex 2.92893 -7.07107 0
      vertex 11.7678 78.2322 0
      vertex 20 90 0
    endloop
  endfacet
  facet normal 0 0 -1
    outer loop
      vertex 11.7678 78.2322 0
      vertex 12.5 80 0
      vertex 20 90 0
    endloop
  endfacet
  facet normal 0 0 -1
    outer loop
      vertex 10 82.5 0
      vertex 20 90 0
      vertex 11.7678 81.7678 0
    endloop
  endfacet
  facet normal 0 0 -1
    outer loop
      vertex 8.23223 81.7678 0
      vertex 0 90 0
      vertex 10 82.5 0
    endloop
  endfacet
  facet normal 0 0 -1
    outer loop
      vertex 7.5 80 0
      vertex 0 90 0
      vertex 8.23223 81.7678 0
    endloop
  endfacet
  facet normal 0 0 -1
    outer loop
      vertex 11.7678 81.7678 0
      vertex 20 90 0
      vertex 12.5 80 0
    endloop
  endfacet
  facet normal 0 1 0
    outer loop
      vertex 0 90 0
      vertex 0 90 10
      vertex 20 90 0
    endloop
  endfacet
  facet normal 0 1 0
    outer loop
      vertex 20 90 0
      vertex 0 90 10
      vertex 20 90 10
    endloop
  endfacet
  facet normal 0 0 1
    outer loop
      vertex 17.0711 7.07107 10
      vertex 20 0 10
      vertex 0 90 10
    endloop
  endfacet
  facet normal 0 0 1
    outer loop
      vertex 0 90 10
      vertex 0 0 10
      vertex 2.92893 7.07107 10
    endloop
  endfacet
  facet normal 0 0 1
    outer loop
      vertex 10 10 10
      vertex 0 90 10
      vertex 2.92893 7.07107 10
    endloop
  endfacet
  facet normal 0 0 1
    outer loop
      vertex 10 10 10
      vertex 17.0711 7.07107 10
      vertex 0 90 10
    endloop
  endfacet
  facet normal 0 0 1
    outer loop
      vertex 8.23223 81.7678 10
      vertex 20 90 10
      vertex 0 90 10
    endloop
  endfacet
  facet normal 0 0 1
    outer loop
      vertex 20 0 10
      vertex 8.23223 78.2322 10
      vertex 0 90 10
    endloop
  endfacet
  facet normal 0 0 1
    outer loop
      vertex 12.5 80 10
      vertex 20 90 10
      vertex 11.7678 81.7678 10
    endloop
  endfacet
  facet normal 0 0 1
    outer loop
      vertex 8.23223 78.2322 10
      vertex 7.5 80 10
      vertex 0 90 10
    endloop
  endfacet
  facet normal 0 0 1
    outer loop
      vertex 7.5 80 10
      vertex 8.23223 81.7678 10
      vertex 0 90 10
    endloop
  endfacet
  facet normal 0 0 1
    outer loop
      vertex 10 82.5 10
      vertex 20 90 10
      vertex 8.23223 81.7678 10
    endloop
  endfacet
  facet normal 0 0 1
    outer loop
      vertex 12.5 80 10
      vertex 11.7678 78.2322 10
      vertex 20 0 10
    endloop
  endfacet
  facet normal 0 0 1
    outer loop
      vertex 20 0 10
      vertex 20 90 10
      vertex 12.5 80 10
    endloop
  endfacet
  facet normal 0 0 1
    outer loop
      vertex 10 77.5 10
      vertex 20 0 10
      vertex 11.7678 78.2322 10
    endloop
  endfacet
  facet normal 0 0 1
    outer loop
      vertex 8.23223 78.2322 10
      vertex 20 0 10
      vertex 10 77.5 10
    endloop
  endfacet
  facet normal 0 0 1
    outer loop
      vertex 10 82.5 10
      vertex 11.7678 81.7678 10
      vertex 20 90 10
    endloop
  endfacet
  facet normal -0.92388 0.382683 0
    outer loop
      vertex 0 0 10
      vertex 0 0 20
      vertex 2.92893 7.07107 10
    endloop
  endfacet
  facet normal -0.92388 0.382683 0
    outer loop
      vertex 2.92893 7.07107 10
      vertex 0 0 20
      vertex 2.92893 7.07107 20
    endloop
  endfacet
  facet normal 0 0 1
    outer loop
      vertex 2.92893 7.07107 20
      vertex 0 0 20
      vertex 2.92893 -7.07107 20
    endloop
  endfacet
  facet normal 0 0 1
    outer loop
      vertex 17.0711 -7.07107 20
      vertex 2.92893 7.07107 20
      vertex 10 -10 20
    endloop
  endfacet
  facet normal 0 0 1
    outer loop
      vertex 10 -10 20
      vertex 2.92893 7.07107 20
      vertex 2.92893 -7.07107 20
    endloop
  endfacet
  facet normal 0 0 1
    outer loop
      vertex 20 0 20
      vertex 2.92893 7.07107 20
      vertex 17.0711 -7.07107 20
    endloop
  endfacet
  facet normal 0 0 1
    outer loop
      vertex 17.0711 7.07107 20
      vertex 2.92893 7.07107 20
      vertex 20 0 20
    endloop
  endfacet
  facet normal 0 0 1
    outer loop
      vertex 10 10 20
      vertex 2.92893 7.07107 20
      vertex 17.0711 7.07107 20
    endloop
  endfacet
  facet normal -0.382683 -0.92388 0
    outer loop
      vertex 2.92893 -7.07107 20
      vertex 2.92893 -7.07107 0
      vertex 10 -10 0
    endloop
  endfacet
  facet normal -0.382683 -0.92388 0
    outer loop
      vertex 10 -10 20
      vertex 2.92893 -7.07107 20
      vertex 10 -10 0
    endloop
  endfacet
  facet normal 0.382683 -0.92388 0
    outer loop
      vertex 10 -10 20
      vertex 10 -10 0
      vertex 17.0711 -7.07107 0
    endloop
  endfacet
  facet normal 0.382683 -0.92388 0
    outer loop
      vertex 17.0711 -7.07107 20
      vertex 10 -10 20
      vertex 17.0711 -7.07107 0
    endloop
  endfacet
  facet normal 0.92388 -0.382683 0
    outer loop
      vertex 17.0711 -7.07107 20
      vertex 17.0711 -7.07107 0
      vertex 20 0 0
    endloop
  endfacet
  facet normal 0.92388 -0.382683 0
    outer loop
      vertex 20 0 20
      vertex 17.0711 -7.07107 20
      vertex 20 0 10
    endloop
  endfacet
  facet normal 0.92388 -0.382683 0
    outer loop
      vertex 20 0 10
      vertex 17.0711 -7.07107 20
      vertex 20 0 0
    endloop
  endfacet
  facet normal 1 0 0
    outer loop
      vertex 20 0 10
      vertex 20 0 0
      vertex 20 90 0
    endloop
  endfacet
  facet normal 1 0 0
    outer loop
      vertex 20 90 10
      vertex 20 0 10
      vertex 20 90 0
    endloop
  endfacet
  facet normal 0.92388 -0.382682 0
    outer loop
      vertex 8.23223 81.7678 0
      vertex 8.23223 81.7678 10
      vertex 7.5 80 10
    endloop
  endfacet
  facet normal 0.92388 -0.382682 0
    outer loop
      vertex 7.5 80 0
      vertex 8.23223 81.7678 0
      vertex 7.5 80 10
    endloop
  endfacet
  facet normal 0.92388 0.382682 0
    outer loop
      vertex 7.5 80 10
      vertex 8.23223 78.2322 10
      vertex 8.23223 78.2322 0
    endloop
  endfacet
  facet normal 0.92388 0.382682 0
    outer loop
      vertex 7.5 80 0
      vertex 7.5 80 10
      vertex 8.23223 78.2322 0
    endloop
  endfacet
  facet normal 0.382682 -0.92388 0
    outer loop
      vertex 10 82.5 0
      vertex 10 82.5 10
      vertex 8.23223 81.7678 10
    endloop
  endfacet
  facet normal 0.382682 -0.92388 0
    outer loop
      vertex 8.23223 81.7678 0
      vertex 10 82.5 0
      vertex 8.23223 81.7678 10
    endloop
  endfacet
  facet normal -0.382682 -0.92388 0
    outer loop
      vertex 11.7678 81.7678 0
      vertex 11.7678 81.7678 10
      vertex 10 82.5 10
    endloop
  endfacet
  facet normal -0.382682 -0.92388 0
    outer loop
      vertex 10 82.5 0
      vertex 11.7678 81.7678 0
      vertex 10 82.5 10
    endloop
  endfacet
  facet normal -0.92388 -0.382682 0
    outer loop
      vertex 12.5 80 10
      vertex 11.7678 81.7678 10
      vertex 12.5 80 0
    endloop
  endfacet
  facet normal -0.92388 -0.382682 0
    outer loop
      vertex 12.5 80 0
      vertex 11.7678 81.7678 10
      vertex 11.7678 81.7678 0
    endloop
  endfacet
  facet normal -0.92388 0.382682 0
    outer loop
      vertex 12.5 80 10
      vertex 12.5 80 0
      vertex 11.7678 78.2322 10
    endloop
  endfacet
  facet normal -0.92388 0.382682 0
    outer loop
      vertex 11.7678 78.2322 10
      vertex 12.5 80 0
      vertex 11.7678 78.2322 0
    endloop
  endfacet
  facet normal -0.382682 0.92388 0
    outer loop
      vertex 11.7678 78.2322 10
      vertex 11.7678 78.2322 0
      vertex 10 77.5 10
    endloop
  endfacet
  facet normal -0.382682 0.92388 0
    outer loop
      vertex 10 77.5 10
      vertex 11.7678 78.2322 0
      vertex 10 77.5 0
    endloop
  endfacet
  facet normal 0.382682 0.92388 0
    outer loop
      vertex 10 77.5 10
      vertex 10 77.5 0
      vertex 8.23223 78.2322 10
    endloop
  endfacet
  facet normal 0.382682 0.92388 0
    outer loop
      vertex 8.23223 78.2322 10
      vertex 10 77.5 0
      vertex 8.23223 78.2322 0
    endloop
  endfacet
  facet normal 0.92388 0.382683 0
    outer loop
      vertex 20 0 10
      vertex 17.0711 7.07107 10
      vertex 17.0711 7.07107 20
    endloop
  endfacet
  facet normal 0.92388 0.382683 0
    outer loop
      vertex 20 0 20
      vertex 20 0 10
      vertex 17.0711 7.07107 20
    endloop
  endfacet
  facet normal 0.382683 0.92388 0
    outer loop
      vertex 10 10 10
      vertex 10 10 20
      vertex 17.0711 7.07107 10
    endloop
  endfacet
  facet normal 0.382683 0.92388 0
    outer loop
      vertex 17.0711 7.07107 10
      vertex 10 10 20
      vertex 17.0711 7.07107 20
    endloop
  endfacet
  facet normal -0.382683 0.92388 0
    outer loop
      vertex 2.92893 7.07107 10
      vertex 2.92893 7.07107 20
      vertex 10 10 10
    endloop
  endfacet
  facet normal -0.382683 0.92388 0
    outer loop
      vertex 10 10 10
      vertex 2.92893 7.07107 20
      vertex 10 10 20
    endloop
  endfacet
endsolid OpenSCAD_Model
